<?xml version="1.0" standalone="no"?><!DOCTYPE svg PUBLIC "-//W3C//DTD SVG 1.1//EN" "http://www.w3.org/Graphics/SVG/1.1/DTD/svg11.dtd"><svg t="1665959214849"  fill="#cfcfcf" viewBox="0 0 1024 1024" version="1.1" xmlns="http://www.w3.org/2000/svg" p-id="2856" xmlns:xlink="http://www.w3.org/1999/xlink" width="200" height="200"><path d="M772 608a8 8 0 0 1 8 8v75.968l56 0.032c15.456 0 28 12.544 28 28v20a8 8 0 0 1-8 8l-76.032-0.032 0.032 56.032A28 28 0 0 1 752 832h-20a8 8 0 0 1-8-8l-0.032-76.032-55.968 0.032A28 28 0 0 1 640 720v-20a8 8 0 0 1 8-8l76-0.032v-55.968c0-15.456 12.544-28 28-28h20zM512 193.056a173.344 173.344 0 0 1 105.056 311.232 304.896 304.896 0 0 1 97.28 58.144 28 28 0 0 1-37.12 41.92A249.344 249.344 0 0 0 262.688 791.04a28 28 0 1 1-56 0 305.44 305.44 0 0 1 200.32-286.784A173.344 173.344 0 0 1 512 193.088z m0 56a117.344 117.344 0 1 0 0 234.688 117.344 117.344 0 0 0 0-234.688z" p-id="2857"></path></svg>