<?xml version="1.0" standalone="no"?><!DOCTYPE svg PUBLIC "-//W3C//DTD SVG 1.1//EN" "http://www.w3.org/Graphics/SVG/1.1/DTD/svg11.dtd"><svg t="1666073867627" fill="#07a3c8" viewBox="0 0 1024 1024" version="1.1" xmlns="http://www.w3.org/2000/svg" p-id="1504" xmlns:xlink="http://www.w3.org/1999/xlink" width="200" height="200"><path d="M874.666667 309.333333h-192c-12.8 0-21.333333-8.533333-21.333334-21.333333s8.533333-21.333333 21.333334-21.333333h192c12.8 0 21.333333 8.533333 21.333333 21.333333s-8.533333 21.333333-21.333333 21.333333zM864 437.333333H682.666667c-12.8 0-21.333333-8.533333-21.333334-21.333333s8.533333-21.333333 21.333334-21.333333h181.333333c12.8 0 21.333333 8.533333 21.333333 21.333333s-8.533333 21.333333-21.333333 21.333333zM917.333333 565.333333H682.666667c-12.8 0-21.333333-8.533333-21.333334-21.333333s8.533333-21.333333 21.333334-21.333333h234.666666c12.8 0 21.333333 8.533333 21.333334 21.333333s-8.533333 21.333333-21.333334 21.333333zM409.6 477.866667c-85.333333 0-153.6-68.266667-153.6-153.6S326.4 170.666667 409.6 170.666667s153.6 68.266667 153.6 153.6-68.266667 153.6-153.6 153.6z m0-264.533334c-61.866667 0-110.933333 49.066667-110.933333 110.933334 0 61.866667 49.066667 110.933333 110.933333 110.933333 61.866667 0 110.933333-49.066667 110.933333-110.933333 0-61.866667-49.066667-110.933333-110.933333-110.933334zM693.333333 834.133333c-12.8 0-21.333333-8.533333-21.333333-21.333333 0-145.066667-117.333333-260.266667-260.266667-260.266667S149.333333 669.866667 149.333333 812.8c0 12.8-8.533333 21.333333-21.333333 21.333333s-21.333333-8.533333-21.333333-21.333333c0-168.533333 136.533333-302.933333 302.933333-302.933333s302.933333 136.533333 302.933333 302.933333c2.133333 12.8-6.4 21.333333-19.2 21.333333z" p-id="1505"></path></svg>