<?xml version="1.0" standalone="no"?><!DOCTYPE svg PUBLIC "-//W3C//DTD SVG 1.1//EN" "http://www.w3.org/Graphics/SVG/1.1/DTD/svg11.dtd"><svg t="1666073913289" fill="#d3d2d2" viewBox="0 0 1024 1024" version="1.1" xmlns="http://www.w3.org/2000/svg" p-id="5042" xmlns:xlink="http://www.w3.org/1999/xlink" width="200" height="200"><path d="M537.67 897.24a39.83 39.83 0 0 1-33.17-17.73l-73.85-110.46h-207a74.26 74.26 0 0 1-74.17-74.17V260.15A74.25 74.25 0 0 1 223.63 186h628.09a74.26 74.26 0 0 1 74.18 74.17v434.71a74.27 74.27 0 0 1-74.18 74.17h-207l-73.86 110.46a39.86 39.86 0 0 1-33.19 17.73z m-314-682.91a45.87 45.87 0 0 0-45.83 45.82v434.73a45.88 45.88 0 0 0 45.83 45.82h214.55A14.17 14.17 0 0 1 450 747l78 116.76a11.56 11.56 0 0 0 19.23 0L625.34 747a14.17 14.17 0 0 1 11.79-6.3h214.59a45.88 45.88 0 0 0 45.83-45.82V260.15a45.87 45.87 0 0 0-45.83-45.82z" p-id="5043"></path><path d="M344.85 532.16a61.34 61.34 0 1 1 61.33-61.34 61.41 61.41 0 0 1-61.33 61.34z m0-100a38.66 38.66 0 1 0 38.66 38.66 38.71 38.71 0 0 0-38.66-38.66zM533.31 532.16a61.34 61.34 0 1 1 61.34-61.34 61.41 61.41 0 0 1-61.34 61.34z m0-100A38.66 38.66 0 1 0 572 470.82a38.71 38.71 0 0 0-38.69-38.66zM721.78 532.16a61.34 61.34 0 1 1 61.34-61.34 61.41 61.41 0 0 1-61.34 61.34z m0-100a38.66 38.66 0 1 0 38.66 38.66 38.7 38.7 0 0 0-38.66-38.66z" p-id="5044"></path></svg>